<?xml version="1.0" encoding="UTF-8" standalone="no"?>
<!-- Created with Inkscape (http://www.inkscape.org/) -->

<svg
   version="1.1"
   id="svg2"
   xml:space="preserve"
   width="800"
   height="500"
   viewBox="0 0 800 500"
   sodipodi:docname="logo.svg"
   inkscape:version="1.1.2 (0a00cf5339, 2022-02-04)"
   xmlns:inkscape="http://www.inkscape.org/namespaces/inkscape"
   xmlns:sodipodi="http://sodipodi.sourceforge.net/DTD/sodipodi-0.dtd"
   xmlns="http://www.w3.org/2000/svg"
   xmlns:svg="http://www.w3.org/2000/svg"><defs
     id="defs6"><clipPath
       clipPathUnits="userSpaceOnUse"
       id="clipPath24"><path
         d="M 0,841.89 H 595.276 V 0 H 0 Z"
         id="path22" /></clipPath><clipPath
       clipPathUnits="userSpaceOnUse"
       id="clipPath86"><path
         d="M 0,841.89 H 595.276 V 0 H 0 Z"
         id="path84" /></clipPath><clipPath
       clipPathUnits="userSpaceOnUse"
       id="clipPath98"><path
         d="M 0,841.89 H 595.276 V 0 H 0 Z"
         id="path96" /></clipPath><clipPath
       clipPathUnits="userSpaceOnUse"
       id="clipPath138"><path
         d="M 0,841.89 H 595.276 V 0 H 0 Z"
         id="path136" /></clipPath><clipPath
       clipPathUnits="userSpaceOnUse"
       id="clipPath164"><path
         d="M 0,841.89 H 595.276 V 0 H 0 Z"
         id="path162" /></clipPath></defs><sodipodi:namedview
     id="namedview4"
     pagecolor="#ffffff"
     bordercolor="#666666"
     borderopacity="1.0"
     inkscape:pageshadow="2"
     inkscape:pageopacity="0.0"
     inkscape:pagecheckerboard="0"
     showgrid="false"
     inkscape:zoom="0.35355339"
     inkscape:cx="248.90159"
     inkscape:cy="-110.30866"
     inkscape:window-width="1920"
     inkscape:window-height="975"
     inkscape:window-x="0"
     inkscape:window-y="33"
     inkscape:window-maximized="1"
     inkscape:current-layer="g8" /><g
     id="g8"
     inkscape:groupmode="layer"
     inkscape:label="logo"
     transform="matrix(1.3333333,0,0,-1.3333333,0,1122.52)"
     style="display:inline"><g
       id="g76"
       transform="matrix(1.0379285,0,0,1.087464,562.45723,771.5572)"
       style="display:inline"><path
         d="m 0,0 -252.173,64.676 -253.56,-64.087 30.4,-108.323 -29.969,-107.508 253.097,-64.921 252.205,64.69 -30.032,107.739 z"
         style="fill:#898282;fill-opacity:1;fill-rule:nonzero;stroke:none"
         id="path78" /></g><g
       id="g80"
       style="display:inline"
       transform="matrix(1.0379285,0,0,1.087464,-9.3011642,-60.972069)"><g
         id="g82"
         clip-path="url(#clipPath86)"><g
           id="g88"
           transform="translate(77.1489,568.8981)"><path
             d="m 0,0 221.511,-57.224 220.741,56.536 -23.042,82.653 -0.058,0.208 c -1.228,4.404 -1.228,9.129 0.018,13.596 l 22.634,82.526 -220.442,56.758 -222.2,-56.921 23.735,-82.359 c 1.246,-4.471 1.246,-9.201 0,-13.672 L 0,0 M 221.516,-65.977 -10.57,-6.32 14.724,84.379 c 0.829,2.982 0.829,6.135 0,9.116 l -26.263,90.958 232.955,59.366 231.334,-59.213 -25.408,-91.115 c -0.829,-2.977 -0.829,-6.126 0,-9.107 l 25.38,-91.044 z"
             style="fill:#211c1d;fill-opacity:1;fill-rule:nonzero;stroke:none"
             id="path90" /></g></g></g><g
       id="g92"
       style="display:inline"
       transform="matrix(1.0379285,0,0,1.087464,-9.3011642,-60.972069)"><g
         id="g94"
         clip-path="url(#clipPath98)"><g
           id="g100"
           transform="translate(308.9297,532.8644)"><path
             d="m 0,0 c 0,-0.851 -0.692,-1.543 -1.543,-1.543 h -17.442 c -0.851,0 -1.543,0.692 -1.543,1.543 v 4.041 c 0,0.851 0.692,1.542 1.543,1.542 H -1.543 C -0.692,5.583 0,4.892 0,4.041 Z M 43.34,4.628 H 4.273 v 1.413 c 0,2.105 -1.711,3.817 -3.816,3.817 h -3.752 v 13.604 c 0,0.427 -0.17,0.835 -0.472,1.137 l -5.36,5.36 c -0.629,0.628 -1.646,0.628 -2.274,0 l -5.361,-5.36 c -0.301,-0.302 -0.47,-0.711 -0.47,-1.137 V 9.858 h -3.753 c -2.105,0 -3.817,-1.712 -3.817,-3.817 V 4.628 h -39.066 v -5.215 h 39.066 V -2 c 0,-2.105 1.712,-3.817 3.817,-3.817 H 0.457 c 2.105,0 3.816,1.712 3.816,3.817 v 1.413 H 43.34 Z"
             style="fill:#211c1d;fill-opacity:1;fill-rule:nonzero;stroke:none"
             id="path102" /></g><path
           d="M 471.479,608.499 H 304.026 v 4.366 h 167.453 z"
           style="fill:#211c1d;fill-opacity:1;fill-rule:nonzero;stroke:none"
           id="path104" /><g
           id="g106"
           transform="translate(298.6919,566.6539)"><path
             d="m 0,0 c -0.592,0 -1.072,0.479 -1.072,1.071 l -0.027,37.588 c 0,0.592 0.48,1.072 1.072,1.073 h 0.001 c 0.591,0 1.071,-0.48 1.071,-1.071 L 1.072,1.073 C 1.073,0.481 0.593,0 0.001,0 Z"
             style="fill:#211c1d;fill-opacity:1;fill-rule:nonzero;stroke:none"
             id="path108" /></g><g
           id="g110"
           transform="translate(292.7734,605.6837)"><path
             d="M 0,0 C -0.314,0 -0.621,0.163 -0.789,0.455 -1.041,0.89 -0.891,1.447 -0.456,1.698 L 1.12,2.608 C 1.555,2.861 2.112,2.71 2.363,2.275 2.615,1.84 2.465,1.284 2.03,1.032 L 0.454,0.122 C 0.311,0.039 0.154,0 0,0 m -4.729,-2.73 c -0.314,0 -0.621,0.163 -0.789,0.455 -0.252,0.435 -0.102,0.991 0.333,1.243 l 1.576,0.91 c 0.435,0.253 0.992,0.103 1.243,-0.333 0.252,-0.435 0.102,-0.992 -0.333,-1.243 l -1.576,-0.91 c -0.143,-0.083 -0.3,-0.122 -0.454,-0.122 m -4.729,-2.73 c -0.314,0 -0.621,0.163 -0.789,0.455 -0.252,0.435 -0.102,0.991 0.333,1.243 l 1.576,0.91 c 0.435,0.252 0.992,0.103 1.243,-0.333 0.252,-0.435 0.102,-0.992 -0.333,-1.243 l -1.576,-0.91 c -0.143,-0.083 -0.3,-0.122 -0.454,-0.122 m -4.729,-2.731 c -0.314,0 -0.621,0.163 -0.789,0.455 -0.252,0.435 -0.102,0.992 0.333,1.243 l 1.576,0.91 c 0.435,0.254 0.992,0.104 1.243,-0.333 0.252,-0.435 0.102,-0.991 -0.333,-1.243 l -1.576,-0.91 c -0.143,-0.083 -0.3,-0.122 -0.454,-0.122 m -4.729,-2.73 c -0.315,0 -0.621,0.163 -0.789,0.455 -0.252,0.436 -0.102,0.992 0.333,1.243 l 1.576,0.91 c 0.438,0.251 0.993,0.102 1.243,-0.333 0.252,-0.436 0.102,-0.992 -0.333,-1.243 l -1.576,-0.91 c -0.143,-0.083 -0.3,-0.122 -0.454,-0.122 m -4.729,-2.73 c -0.314,0 -0.621,0.163 -0.789,0.455 -0.252,0.435 -0.102,0.991 0.333,1.243 l 1.576,0.91 c 0.435,0.252 0.992,0.103 1.243,-0.333 0.252,-0.435 0.102,-0.992 -0.333,-1.243 l -1.576,-0.91 c -0.143,-0.083 -0.3,-0.122 -0.454,-0.122"
             style="fill:#211c1d;fill-opacity:1;fill-rule:nonzero;stroke:none"
             id="path112" /></g><g
           id="g114"
           transform="translate(295.2075,603.4781)"><path
             d="M 0,0 C -0.146,0 -0.293,0.035 -0.431,0.109 -0.873,0.347 -1.039,0.899 -0.8,1.342 L 0.063,2.944 C 0.301,3.387 0.852,3.553 1.296,3.314 1.738,3.076 1.904,2.523 1.666,2.081 L 0.802,0.479 C 0.638,0.173 0.324,0 0,0 m -2.59,-4.807 c -0.145,0 -0.293,0.035 -0.431,0.109 -0.442,0.238 -0.607,0.79 -0.369,1.233 l 0.863,1.602 c 0.238,0.442 0.789,0.608 1.233,0.369 0.442,-0.238 0.608,-0.79 0.37,-1.233 L -1.788,-4.329 C -1.952,-4.634 -2.266,-4.807 -2.59,-4.807 m -2.59,-4.808 c -0.145,0 -0.293,0.035 -0.43,0.109 -0.443,0.238 -0.608,0.791 -0.37,1.233 l 0.863,1.603 c 0.238,0.441 0.789,0.608 1.233,0.369 0.443,-0.238 0.608,-0.79 0.37,-1.233 L -4.377,-9.136 C -4.542,-9.441 -4.855,-9.615 -5.18,-9.615 m -2.589,-4.807 c -0.146,0 -0.294,0.035 -0.431,0.109 -0.442,0.239 -0.608,0.791 -0.369,1.233 l 0.863,1.602 c 0.238,0.442 0.789,0.608 1.233,0.37 0.442,-0.239 0.608,-0.791 0.369,-1.233 l -0.863,-1.602 c -0.164,-0.306 -0.478,-0.479 -0.802,-0.479 m -2.59,-4.807 c -0.145,0 -0.293,0.035 -0.431,0.108 -0.442,0.239 -0.607,0.791 -0.369,1.233 l 0.863,1.603 c 0.238,0.443 0.789,0.609 1.233,0.369 0.442,-0.238 0.608,-0.79 0.37,-1.232 l -0.864,-1.603 c -0.164,-0.305 -0.478,-0.478 -0.802,-0.478 m -2.59,-4.808 c -0.145,0 -0.293,0.036 -0.43,0.109 -0.443,0.239 -0.608,0.791 -0.37,1.233 l 0.863,1.602 c 0.238,0.443 0.789,0.609 1.233,0.37 0.443,-0.238 0.608,-0.791 0.37,-1.233 l -0.863,-1.602 c -0.165,-0.305 -0.479,-0.479 -0.803,-0.479"
             style="fill:#211c1d;fill-opacity:1;fill-rule:nonzero;stroke:none"
             id="path116" /></g><g
           id="g118"
           transform="translate(302.1641,603.5006)"><path
             d="m 0,0 c -0.324,0 -0.638,0.173 -0.802,0.479 l -0.863,1.602 c -0.239,0.442 -0.073,0.995 0.369,1.233 0.444,0.238 0.995,0.072 1.233,-0.37 L 0.8,1.342 C 1.039,0.899 0.873,0.347 0.431,0.109 0.293,0.035 0.146,0 0,0 m 2.59,-4.807 c -0.324,0 -0.638,0.173 -0.802,0.478 l -0.863,1.603 c -0.239,0.442 -0.073,0.995 0.369,1.233 0.444,0.239 0.995,0.073 1.232,-0.37 L 3.39,-3.465 C 3.629,-3.908 3.463,-4.46 3.021,-4.698 2.883,-4.772 2.735,-4.807 2.59,-4.807 m 2.59,-4.808 c -0.325,0 -0.638,0.174 -0.802,0.479 l -0.863,1.602 c -0.24,0.443 -0.074,0.995 0.369,1.233 0.444,0.239 0.995,0.073 1.232,-0.369 L 5.979,-8.273 C 6.219,-8.715 6.053,-9.268 5.61,-9.506 5.473,-9.58 5.325,-9.615 5.18,-9.615 m 2.59,-4.807 c -0.325,0 -0.638,0.173 -0.802,0.479 l -0.864,1.602 c -0.239,0.443 -0.073,0.995 0.37,1.233 0.444,0.238 0.995,0.072 1.232,-0.37 l 0.863,-1.602 c 0.24,-0.442 0.074,-0.995 -0.369,-1.233 -0.137,-0.074 -0.285,-0.109 -0.43,-0.109 m 2.589,-4.807 c -0.324,0 -0.637,0.173 -0.801,0.478 l -0.864,1.603 c -0.239,0.442 -0.073,0.994 0.369,1.232 0.445,0.239 0.996,0.073 1.233,-0.369 l 0.863,-1.603 c 0.239,-0.442 0.073,-0.994 -0.369,-1.233 -0.138,-0.073 -0.285,-0.108 -0.431,-0.108 m 2.59,-4.808 c -0.324,0 -0.637,0.174 -0.802,0.479 l -0.863,1.602 c -0.239,0.443 -0.073,0.995 0.369,1.233 0.445,0.238 0.995,0.073 1.233,-0.369 l 0.863,-1.603 c 0.239,-0.442 0.073,-0.994 -0.369,-1.233 -0.138,-0.073 -0.285,-0.109 -0.431,-0.109"
             style="fill:#211c1d;fill-opacity:1;fill-rule:nonzero;stroke:none"
             id="path120" /></g><g
           id="g122"
           transform="translate(304.6738,605.8478)"><path
             d="m 0,0 c -0.154,0 -0.311,0.039 -0.454,0.122 l -1.576,0.91 c -0.436,0.252 -0.584,0.808 -0.333,1.243 0.252,0.436 0.807,0.586 1.243,0.333 L 0.456,1.698 C 0.892,1.447 1.04,0.89 0.789,0.455 0.62,0.163 0.314,0 0,0 m 4.729,-2.73 c -0.154,0 -0.31,0.039 -0.454,0.122 l -1.577,0.91 c -0.435,0.251 -0.584,0.807 -0.333,1.243 0.25,0.435 0.807,0.585 1.243,0.333 l 1.578,-0.91 C 5.621,-1.283 5.77,-1.84 5.519,-2.275 5.351,-2.567 5.044,-2.73 4.729,-2.73 m 4.729,-2.73 c -0.154,0 -0.311,0.039 -0.454,0.122 l -1.576,0.91 C 6.992,-4.177 6.844,-3.62 7.095,-3.185 7.347,-2.75 7.902,-2.6 8.338,-2.852 l 1.576,-0.91 C 10.35,-4.014 10.498,-4.57 10.247,-5.005 10.078,-5.297 9.772,-5.46 9.458,-5.46 m 4.73,-2.731 c -0.155,0 -0.311,0.039 -0.455,0.122 l -1.577,0.91 c -0.435,0.251 -0.584,0.808 -0.333,1.243 0.25,0.436 0.807,0.585 1.243,0.333 l 1.578,-0.91 c 0.435,-0.251 0.584,-0.807 0.333,-1.243 -0.168,-0.292 -0.475,-0.455 -0.789,-0.455 m 4.728,-2.73 c -0.154,0 -0.311,0.039 -0.454,0.122 l -1.576,0.91 c -0.436,0.251 -0.584,0.807 -0.333,1.243 0.25,0.435 0.807,0.584 1.243,0.333 l 1.576,-0.91 c 0.436,-0.251 0.584,-0.807 0.333,-1.243 -0.168,-0.292 -0.475,-0.455 -0.789,-0.455 m 4.73,-2.73 c -0.155,0 -0.311,0.039 -0.455,0.122 l -1.577,0.91 c -0.435,0.251 -0.584,0.807 -0.333,1.243 0.25,0.435 0.807,0.585 1.243,0.333 l 1.578,-0.91 c 0.435,-0.251 0.584,-0.808 0.333,-1.243 -0.168,-0.292 -0.475,-0.455 -0.789,-0.455"
             style="fill:#211c1d;fill-opacity:1;fill-rule:nonzero;stroke:none"
             id="path124" /></g><path
           d="m 293.305,608.499 h -164.73 v 4.366 h 164.73 z"
           style="fill:#211c1d;fill-opacity:1;fill-rule:nonzero;stroke:none"
           id="path126" /><g
           id="g128"
           transform="translate(298.6655,608.5377)"><path
             d="m 0,0 c -1.184,0 -2.144,0.96 -2.144,2.144 0,1.184 0.96,2.144 2.144,2.144 1.184,0 2.144,-0.96 2.144,-2.144 C 2.144,0.96 1.184,0 0,0"
             style="fill:#211c1d;fill-opacity:1;fill-rule:nonzero;stroke:none"
             id="path130" /></g></g></g><g
       id="g132"
       style="display:inline"
       transform="matrix(1.0379285,0,0,1.087464,-9.3011642,-60.972069)"><g
         id="g134"
         clip-path="url(#clipPath138)"><g
           id="g140"
           transform="translate(309.291,768.9982)"><path
             d="m 0,0 h -2.364 -16.067 -2.359 l 0.012,23.366 H 0.012 Z M 43.215,14.683 H 6.012 v 8.746 c 0,3.273 -2.548,5.937 -5.68,5.937 h -21.441 c -3.132,0 -5.681,-2.664 -5.681,-5.937 v -8.746 h -37.202 v -6 h 37.202 v -8.746 c 0,-3.274 2.549,-5.937 5.681,-5.937 h 0.58 l 4.642,-12.712 c 0.432,-1.183 1.558,-1.971 2.818,-1.971 h 5.36 c 1.261,0 2.388,0.789 2.819,1.974 L -0.264,-6 h 0.596 c 3.132,0 5.68,2.663 5.68,5.937 v 8.746 h 37.203 z"
             style="fill:#211c1d;fill-opacity:1;fill-rule:nonzero;stroke:none"
             id="path142" /></g><g
           id="g144"
           transform="translate(234.6543,707.004)"><path
             d="m 0,0 h -101.465 v 2.416 h 217.497 c 1.657,0 3,1.343 3,3 v 7.047 c 0,1.657 -1.343,3 -3,3 H 67.065 l 0.183,19.428 c 0.016,1.657 -1.315,3.013 -2.972,3.028 h -0.028 c -1.644,0 -2.984,-1.324 -3,-2.971 L 61.038,12.491 C 61.03,11.69 61.343,10.92 61.906,10.352 62.47,9.783 63.237,9.463 64.038,9.463 h 48.994 V 8.416 L -103.079,7.597 c -1.657,0 -3,-1.343 -3,-3 V 0 -2.181 -4.363 H -0.191 236.825 V 0 Z"
             style="fill:#211c1d;fill-opacity:1;fill-rule:nonzero;stroke:none"
             id="path146" /></g></g></g><path
       d="M 557.74378,613.40676 H 42.248567 v 81.99479 H 557.74378 Z"
       style="display:inline;fill:#211c1d;fill-opacity:1;fill-rule:nonzero;stroke:none;stroke-width:1.0624"
       id="path148" /><g
       id="g150"
       transform="matrix(1.0379285,0,0,1.087464,37.542912,620.24572)"
       style="display:inline"><path
         d="m 0,0 h -36.171 l 16.337,31.405 -16.337,31.41 H 0 Z"
         style="fill:#211c1d;fill-opacity:1;fill-rule:nonzero;stroke:none"
         id="path152" /></g><g
       id="g154"
       transform="matrix(1.0379285,0,0,1.087464,600.00001,620.24572)"
       style="display:inline"><path
         d="M 0,0 H -36.171 V 62.815 H 0 l -16.332,-31.41 z"
         style="fill:#211c1d;fill-opacity:1;fill-rule:nonzero;stroke:none"
         id="path156" /></g><g
       id="g158"
       style="display:inline"
       transform="matrix(1.0379285,0,0,1.087464,-9.3011642,-60.972069)"><g
         id="g160"
         clip-path="url(#clipPath164)"><g
           id="g166"
           transform="translate(127.8906,659.8898)"><path
             d="m 0,0 5.134,-13.967 c 0.454,-1.201 1.428,-1.801 2.92,-1.801 h 7.884 c 2.288,0 3.432,-0.803 3.432,-2.409 0,-1.103 -0.406,-1.967 -1.217,-2.592 -0.812,-0.624 -1.939,-0.937 -3.382,-0.937 H 6.692 c -2.142,0 -3.65,0.297 -4.526,0.889 -0.876,0.592 -1.671,1.829 -2.385,3.711 l -6.448,17.422 -5.037,-12.385 c -0.974,-2.434 -2.36,-3.651 -4.161,-3.651 -0.747,0 -1.387,0.244 -1.923,0.731 -0.535,0.486 -0.803,1.062 -0.803,1.727 0,0.535 0.138,1.152 0.414,1.849 l 0.292,0.706 6.327,15.574 c 0.956,2.368 1.435,4.006 1.435,4.915 0,0.795 -0.344,1.48 -1.034,2.056 -0.69,0.576 -1.496,0.864 -2.421,0.864 -1.655,0 -3.143,-0.694 -4.465,-2.08 -1.323,-1.388 -1.983,-2.941 -1.983,-4.661 0,-1.881 1.013,-3.187 3.041,-3.917 1.233,-0.438 1.85,-1.201 1.85,-2.288 0,-0.908 -0.353,-1.658 -1.059,-2.25 -0.705,-0.593 -1.586,-0.888 -2.64,-0.888 -2.028,0 -3.764,0.859 -5.208,2.579 -1.443,1.719 -2.165,3.772 -2.165,6.156 0,3.553 1.326,6.655 3.978,9.308 2.653,2.652 5.763,3.978 9.333,3.978 2.66,0 4.882,-0.779 6.667,-2.336 1.784,-1.557 2.676,-3.504 2.676,-5.84 0,-1.654 -0.422,-3.52 -1.265,-5.596 L -5.669,2.798 7.105,16.157 c 1.379,1.444 2.636,2.166 3.772,2.166 0.779,0 1.427,-0.256 1.947,-0.766 0.519,-0.512 0.779,-1.157 0.779,-1.935 0,-0.957 -0.658,-2.125 -1.972,-3.504 z"
             style="fill:#ffffff;fill-opacity:1;fill-rule:nonzero;stroke:none"
             id="path168" /></g><g
           id="g170"
           transform="translate(144.8755,656.3859)"><path
             d="M 0,0 H 2.677 C 4.412,0 5.256,0.381 5.208,1.144 5.159,2.003 4.599,2.433 3.528,2.433 2.036,2.433 0.859,1.622 0,0 m -1.168,-4.429 c 0,-1.217 0.916,-1.825 2.75,-1.825 h 7.227 c 2.044,0 3.066,-0.722 3.066,-2.165 0,-0.99 -0.361,-1.761 -1.083,-2.312 -0.722,-0.552 -1.732,-0.828 -3.03,-0.828 H 0.876 c -2.563,0 -4.514,0.633 -5.852,1.898 -1.338,1.266 -2.008,3.115 -2.008,5.548 0,3.131 1.059,5.832 3.176,8.103 2.117,2.271 4.635,3.407 7.555,3.407 2.125,0 3.833,-0.556 5.123,-1.667 1.289,-1.111 1.934,-2.575 1.934,-4.392 0,-2.19 -0.892,-3.812 -2.677,-4.867 -0.989,-0.6 -2.466,-0.9 -4.428,-0.9 z"
             style="fill:#ffffff;fill-opacity:1;fill-rule:nonzero;stroke:none"
             id="path172" /></g><g
           id="g174"
           transform="translate(165.7773,656.7994)"><path
             d="m 0,0 -0.462,-1.12 c -0.714,-1.606 -1.728,-2.408 -3.042,-2.408 -0.665,0 -1.261,0.231 -1.788,0.693 -0.528,0.462 -0.791,0.994 -0.791,1.594 0,0.568 0.235,1.322 0.706,2.263 l 3.236,6.57 c 0.794,1.573 1.784,2.36 2.969,2.36 0.632,0 1.175,-0.206 1.63,-0.62 C 2.912,8.918 3.139,8.427 3.139,7.859 3.139,7.713 3.09,7.397 2.993,6.911 2.928,6.554 2.896,6.237 2.896,5.961 2.896,4.939 3.277,3.893 4.04,2.823 L 5.427,0.9 c 1.411,-1.963 2.116,-3.861 2.116,-5.694 0,-2.044 -0.762,-3.751 -2.287,-5.122 -1.525,-1.371 -3.423,-2.056 -5.694,-2.056 h -5.085 c -2.061,0 -3.091,0.714 -3.091,2.141 0,0.99 0.365,1.764 1.095,2.324 0.73,0.56 1.736,0.84 3.018,0.84 h 2.822 c 2.255,0 3.383,0.818 3.383,2.457 0,0.6 -0.211,1.306 -0.633,2.117 z"
             style="fill:#ffffff;fill-opacity:1;fill-rule:nonzero;stroke:none"
             id="path176" /></g><g
           id="g178"
           transform="translate(183.1758,656.7994)"><path
             d="m 0,0 -0.462,-1.12 c -0.714,-1.606 -1.728,-2.408 -3.042,-2.408 -0.665,0 -1.261,0.231 -1.788,0.693 -0.528,0.462 -0.791,0.994 -0.791,1.594 0,0.568 0.235,1.322 0.706,2.263 l 3.236,6.57 c 0.794,1.573 1.784,2.36 2.969,2.36 0.632,0 1.175,-0.206 1.63,-0.62 C 2.912,8.918 3.139,8.427 3.139,7.859 3.139,7.713 3.09,7.397 2.993,6.911 2.928,6.554 2.896,6.237 2.896,5.961 2.896,4.939 3.277,3.893 4.04,2.823 L 5.427,0.9 c 1.411,-1.963 2.116,-3.861 2.116,-5.694 0,-2.044 -0.762,-3.751 -2.287,-5.122 -1.525,-1.371 -3.423,-2.056 -5.694,-2.056 h -5.085 c -2.061,0 -3.091,0.714 -3.091,2.141 0,0.99 0.365,1.764 1.095,2.324 0.73,0.56 1.736,0.84 3.018,0.84 h 2.822 c 2.255,0 3.383,0.818 3.383,2.457 0,0.6 -0.211,1.306 -0.633,2.117 z"
             style="fill:#ffffff;fill-opacity:1;fill-rule:nonzero;stroke:none"
             id="path180" /></g><g
           id="g182"
           transform="translate(198.9927,650.132)"><path
             d="m 0,0 h 2.555 c 2.06,0 3.091,-0.722 3.091,-2.166 0,-0.989 -0.362,-1.76 -1.084,-2.312 C 3.841,-5.029 2.831,-5.305 1.533,-5.305 h -4.38 c -1.201,0 -2.15,0.284 -2.847,0.852 -0.698,0.568 -1.046,1.33 -1.046,2.287 0,0.503 0.235,1.339 0.705,2.507 l 9.831,24.187 0.268,0.657 c 0.746,1.816 1.938,2.725 3.577,2.725 0.681,0 1.261,-0.227 1.739,-0.681 0.479,-0.454 0.719,-0.998 0.719,-1.63 0,-0.487 -0.122,-1.038 -0.366,-1.655 L 9.466,23.287 Z"
             style="fill:#ffffff;fill-opacity:1;fill-rule:nonzero;stroke:none"
             id="path184" /></g><g
           id="g186"
           transform="translate(212.7168,656.3859)"><path
             d="M 0,0 H 2.677 C 4.412,0 5.256,0.381 5.208,1.144 5.159,2.003 4.599,2.433 3.528,2.433 2.036,2.433 0.859,1.622 0,0 m -1.168,-4.429 c 0,-1.217 0.916,-1.825 2.75,-1.825 h 7.227 c 2.044,0 3.066,-0.722 3.066,-2.165 0,-0.99 -0.361,-1.761 -1.083,-2.312 -0.722,-0.552 -1.732,-0.828 -3.03,-0.828 H 0.876 c -2.563,0 -4.514,0.633 -5.852,1.898 -1.338,1.266 -2.008,3.115 -2.008,5.548 0,3.131 1.059,5.832 3.176,8.103 2.117,2.271 4.635,3.407 7.555,3.407 2.125,0 3.833,-0.556 5.123,-1.667 1.289,-1.111 1.934,-2.575 1.934,-4.392 0,-2.19 -0.892,-3.812 -2.677,-4.867 -0.989,-0.6 -2.466,-0.9 -4.428,-0.9 z"
             style="fill:#ffffff;fill-opacity:1;fill-rule:nonzero;stroke:none"
             id="path188" /></g><g
           id="g190"
           transform="translate(231.5996,658.1134)"><path
             d="m 0,0 -0.827,-2.044 c -0.747,-1.817 -1.72,-2.726 -2.92,-2.726 -0.73,0 -1.338,0.22 -1.825,0.658 -0.487,0.438 -0.73,0.981 -0.73,1.63 0,0.373 0.178,1.005 0.535,1.898 l 2.75,6.789 c 0.665,1.638 1.606,2.458 2.822,2.458 1.201,0 1.939,-0.568 2.215,-1.704 L 2.214,6.205 C 2.312,5.815 2.458,5.572 2.652,5.475 2.847,5.377 3.325,5.329 4.088,5.329 H 9.782 C 11.907,5.329 12.97,4.583 12.97,3.09 12.97,1.03 11.623,0 8.931,0 L 8.663,-0.244 c -2.58,-2.465 -3.869,-4.371 -3.869,-5.718 0,-1.347 0.746,-2.019 2.238,-2.019 h 3.067 c 2.059,0 3.09,-0.714 3.09,-2.142 0,-1.006 -0.361,-1.785 -1.083,-2.336 -0.722,-0.551 -1.732,-0.827 -3.029,-0.827 h -4.77 c -1.622,0 -2.949,0.559 -3.978,1.679 -1.031,1.119 -1.546,2.571 -1.546,4.356 0,1.135 0.276,2.238 0.828,3.309 0.551,1.07 1.524,2.384 2.92,3.942 z"
             style="fill:#ffffff;fill-opacity:1;fill-rule:nonzero;stroke:none"
             id="path192" /></g><g
           id="g194"
           transform="translate(261.4805,672.8595)"><path
             d="m 0,0 -2.409,-5.719 -0.584,-1.362 c -0.665,-1.558 -1.566,-2.336 -2.701,-2.336 -0.617,0 -1.148,0.223 -1.594,0.669 -0.446,0.446 -0.669,0.994 -0.669,1.643 0,0.308 0.04,0.624 0.122,0.948 l 0.146,0.633 1.679,7.933 c 0.195,0.924 0.612,1.674 1.253,2.251 0.641,0.575 1.366,0.863 2.178,0.863 0.892,0 1.646,-0.292 2.263,-0.876 C 0.3,4.063 0.608,3.35 0.608,2.506 0.608,1.792 0.405,0.957 0,0"
             style="fill:#ffffff;fill-opacity:1;fill-rule:nonzero;stroke:none"
             id="path196" /></g><g
           id="g198"
           transform="translate(268.3911,656.7994)"><path
             d="m 0,0 -0.462,-1.12 c -0.714,-1.606 -1.728,-2.408 -3.042,-2.408 -0.665,0 -1.261,0.231 -1.788,0.693 -0.528,0.462 -0.791,0.994 -0.791,1.594 0,0.568 0.235,1.322 0.706,2.263 l 3.236,6.57 c 0.794,1.573 1.784,2.36 2.969,2.36 0.632,0 1.175,-0.206 1.63,-0.62 C 2.912,8.918 3.139,8.427 3.139,7.859 3.139,7.713 3.09,7.397 2.993,6.911 2.928,6.554 2.896,6.237 2.896,5.961 2.896,4.939 3.277,3.893 4.04,2.823 L 5.427,0.9 c 1.411,-1.963 2.116,-3.861 2.116,-5.694 0,-2.044 -0.762,-3.751 -2.287,-5.122 -1.525,-1.371 -3.423,-2.056 -5.694,-2.056 h -5.085 c -2.061,0 -3.091,0.714 -3.091,2.141 0,0.99 0.365,1.764 1.095,2.324 0.73,0.56 1.736,0.84 3.018,0.84 h 2.822 c 2.255,0 3.383,0.818 3.383,2.457 0,0.6 -0.211,1.306 -0.633,2.117 z"
             style="fill:#ffffff;fill-opacity:1;fill-rule:nonzero;stroke:none"
             id="path200" /></g><g
           id="g202"
           transform="translate(348.1562,672.2267)"><path
             d="m 0,0 -14.989,-25.769 c -1.119,-1.914 -2.474,-2.872 -4.064,-2.872 -1.217,0 -2.158,0.378 -2.822,1.132 -0.666,0.755 -0.998,1.829 -0.998,3.224 l 0.633,17.447 -8.858,-18.931 c -0.892,-1.914 -2.181,-2.872 -3.869,-2.872 -1.217,0 -2.17,0.386 -2.859,1.157 -0.69,0.77 -1.034,1.837 -1.034,3.199 l -0.511,16.815 c 0,2.969 -0.256,4.968 -0.767,5.998 -0.51,1.03 -1.505,1.545 -2.981,1.545 -1.314,0 -2.619,-0.694 -3.917,-2.08 -1.298,-1.388 -1.946,-2.787 -1.946,-4.198 0,-1.184 0.365,-2.141 1.094,-2.871 0.73,-0.73 1.687,-1.095 2.871,-1.095 0.341,0 0.665,0.007 0.974,0.024 0.308,0.016 0.502,0.024 0.584,0.024 1.979,0 2.969,-0.819 2.969,-2.458 0,-1.086 -0.561,-1.991 -1.68,-2.712 -1.119,-0.723 -2.53,-1.083 -4.233,-1.083 -2.628,0 -4.803,0.9 -6.522,2.701 -1.72,1.8 -2.579,4.079 -2.579,6.837 0,3.359 1.366,6.363 4.1,9.016 2.733,2.652 5.828,3.978 9.283,3.978 3.164,0 5.455,-0.928 6.875,-2.786 1.419,-1.858 2.129,-4.83 2.129,-8.918 l 0.023,-1.922 0.147,-8.468 8.687,18.858 c 0.973,2.157 2.457,3.236 4.453,3.236 1.135,0 2.052,-0.337 2.749,-1.01 0.698,-0.673 1.046,-1.569 1.046,-2.688 L -16.035,2.19 -16.474,-16.328 -5.523,2.531 -5.012,3.479 C -4.121,5.037 -2.75,5.815 -0.9,5.815 H 3.845 C 6.1,5.815 7.227,5.021 7.227,3.431 7.227,2.36 6.83,1.521 6.035,0.913 5.24,0.304 4.137,0 2.726,0 Z"
             style="fill:#ffffff;fill-opacity:1;fill-rule:nonzero;stroke:none"
             id="path204" /></g><g
           id="g206"
           transform="translate(359.3252,658.5997)"><path
             d="M 0,0 C -1.2,0 -2.296,-0.592 -3.285,-1.776 -4.274,-2.96 -4.77,-4.267 -4.77,-5.694 c 0,-1.882 1.055,-2.823 3.164,-2.823 1.232,0 2.181,0.382 2.847,1.144 1.103,1.249 1.655,2.677 1.655,4.283 0,0.924 -0.268,1.671 -0.803,2.238 C 1.558,-0.284 0.86,0 0,0 m 0.584,5.183 c 2.353,0 4.286,-0.746 5.804,-2.239 1.516,-1.492 2.275,-3.39 2.275,-5.694 0,-1.735 -0.398,-3.459 -1.193,-5.17 -0.795,-1.712 -1.824,-3.079 -3.09,-4.101 -0.844,-0.665 -1.715,-1.123 -2.615,-1.375 -0.901,-0.251 -2.162,-0.376 -3.785,-0.376 -2.644,0 -4.428,0.316 -5.353,0.949 -2.174,1.492 -3.261,3.698 -3.261,6.618 0,3.082 1.112,5.751 3.334,8.006 2.223,2.255 4.85,3.382 7.884,3.382"
             style="fill:#ffffff;fill-opacity:1;fill-rule:nonzero;stroke:none"
             id="path208" /></g><g
           id="g210"
           transform="translate(375.3613,658.1134)"><path
             d="m 0,0 -0.828,-2.044 c -0.746,-1.817 -1.719,-2.726 -2.92,-2.726 -0.73,0 -1.338,0.22 -1.824,0.658 -0.488,0.438 -0.731,0.981 -0.731,1.63 0,0.373 0.178,1.005 0.535,1.898 l 2.75,6.789 c 0.665,1.638 1.606,2.458 2.823,2.458 1.201,0 1.938,-0.568 2.215,-1.704 L 2.214,6.205 C 2.311,5.815 2.457,5.572 2.652,5.475 2.847,5.377 3.324,5.329 4.088,5.329 h 5.693 c 2.125,0 3.188,-0.746 3.188,-2.239 C 12.969,1.03 11.623,0 8.93,0 L 8.662,-0.244 C 6.083,-2.709 4.793,-4.615 4.793,-5.962 c 0,-1.347 0.746,-2.019 2.238,-2.019 h 3.067 c 2.06,0 3.09,-0.714 3.09,-2.142 0,-1.006 -0.361,-1.785 -1.083,-2.336 -0.722,-0.551 -1.732,-0.827 -3.029,-0.827 H 4.307 c -1.623,0 -2.95,0.559 -3.979,1.679 -1.03,1.119 -1.545,2.571 -1.545,4.356 0,1.135 0.276,2.238 0.827,3.309 0.552,1.07 1.525,2.384 2.92,3.942 z"
             style="fill:#ffffff;fill-opacity:1;fill-rule:nonzero;stroke:none"
             id="path212" /></g><g
           id="g214"
           transform="translate(404.4639,655.1202)"><path
             d="m 0,0 3.771,-5.913 c 0.47,-0.73 0.707,-1.33 0.707,-1.801 0,-0.746 -0.313,-1.419 -0.938,-2.019 -0.625,-0.6 -1.326,-0.901 -2.104,-0.901 -0.681,0 -1.275,0.365 -1.777,1.095 l -0.292,0.438 -5.645,8.444 -2.725,-6.74 c -0.877,-2.158 -2.158,-3.237 -3.846,-3.237 -0.697,0 -1.285,0.216 -1.763,0.645 -0.479,0.43 -0.718,0.953 -0.718,1.57 0,0.47 0.13,1.013 0.39,1.63 l 0.267,0.657 10.414,25.672 0.268,0.657 c 0.746,1.816 1.938,2.725 3.577,2.725 0.682,0 1.266,-0.227 1.753,-0.681 0.486,-0.454 0.729,-0.998 0.729,-1.631 0,-0.486 -0.13,-1.046 -0.389,-1.678 L 1.411,18.274 -4.794,2.993 0.681,7.057 c 1.135,0.843 2.109,1.265 2.92,1.265 0.681,0 1.25,-0.219 1.704,-0.657 0.454,-0.438 0.68,-0.981 0.68,-1.63 0,-1.087 -0.599,-2.077 -1.8,-2.969 L 3.626,2.652 Z"
             style="fill:#ffffff;fill-opacity:1;fill-rule:nonzero;stroke:none"
             id="path216" /></g><g
           id="g218"
           transform="translate(419.1611,656.7994)"><path
             d="m 0,0 -0.462,-1.12 c -0.715,-1.606 -1.728,-2.408 -3.042,-2.408 -0.665,0 -1.261,0.231 -1.788,0.693 -0.527,0.462 -0.791,0.994 -0.791,1.594 0,0.568 0.234,1.322 0.705,2.263 l 3.236,6.57 c 0.795,1.573 1.786,2.36 2.969,2.36 0.633,0 1.176,-0.206 1.631,-0.62 C 2.911,8.918 3.14,8.427 3.14,7.859 3.14,7.713 3.091,7.397 2.993,6.911 2.929,6.554 2.896,6.237 2.896,5.961 2.896,4.939 3.276,3.893 4.04,2.823 L 5.427,0.9 c 1.411,-1.963 2.117,-3.861 2.117,-5.694 0,-2.044 -0.764,-3.751 -2.287,-5.122 -1.526,-1.371 -3.424,-2.056 -5.695,-2.056 h -5.085 c -2.061,0 -3.091,0.714 -3.091,2.141 0,0.99 0.365,1.764 1.095,2.324 0.731,0.56 1.736,0.84 3.018,0.84 h 2.822 c 2.254,0 3.383,0.818 3.383,2.457 0,0.6 -0.211,1.306 -0.633,2.117 z"
             style="fill:#ffffff;fill-opacity:1;fill-rule:nonzero;stroke:none"
             id="path220" /></g><g
           id="g222"
           transform="translate(440.1602,662.3961)"><path
             d="m 0,0 c 1.703,0.924 3.107,1.387 4.21,1.387 1.558,0 2.835,-0.434 3.833,-1.302 0.998,-0.868 1.496,-1.975 1.496,-3.321 0,-0.812 -0.194,-1.696 -0.584,-2.653 L 6.4,-12.264 h 2.799 c 2.043,0 3.066,-0.722 3.066,-2.166 0,-0.989 -0.362,-1.76 -1.083,-2.312 -0.723,-0.551 -1.733,-0.827 -3.03,-0.827 h -4.89 c -1.039,0 -1.91,0.296 -2.616,0.888 -0.707,0.592 -1.059,1.318 -1.059,2.178 0,0.584 0.186,1.33 0.559,2.239 l 2.239,5.499 c 0.275,0.698 0.414,1.225 0.414,1.582 0,0.925 -0.617,1.387 -1.85,1.387 -1.654,0 -3.05,-1.412 -4.185,-4.234 l -2.725,-6.692 c -0.86,-2.125 -2.134,-3.188 -3.82,-3.188 -0.666,0 -1.234,0.211 -1.703,0.633 -0.471,0.422 -0.706,0.933 -0.706,1.533 0,0.454 0.122,0.99 0.364,1.606 l 0.267,0.657 10.586,26.11 c 0.924,2.239 2.19,3.358 3.796,3.358 0.665,0 1.238,-0.223 1.716,-0.669 0.479,-0.446 0.717,-0.986 0.717,-1.618 0,-0.52 -0.211,-1.29 -0.632,-2.312 z"
             style="fill:#ffffff;fill-opacity:1;fill-rule:nonzero;stroke:none"
             id="path224" /></g><g
           id="g226"
           transform="translate(464.0322,658.5997)"><path
             d="M 0,0 C -1.2,0 -2.296,-0.592 -3.285,-1.776 -4.274,-2.96 -4.77,-4.267 -4.77,-5.694 c 0,-1.882 1.055,-2.823 3.164,-2.823 1.232,0 2.181,0.382 2.847,1.144 1.103,1.249 1.655,2.677 1.655,4.283 0,0.924 -0.268,1.671 -0.803,2.238 C 1.558,-0.284 0.86,0 0,0 m 0.584,5.183 c 2.353,0 4.286,-0.746 5.804,-2.239 1.516,-1.492 2.275,-3.39 2.275,-5.694 0,-1.735 -0.398,-3.459 -1.193,-5.17 -0.795,-1.712 -1.824,-3.079 -3.09,-4.101 -0.844,-0.665 -1.715,-1.123 -2.615,-1.375 -0.901,-0.251 -2.162,-0.376 -3.785,-0.376 -2.644,0 -4.428,0.316 -5.353,0.949 -2.174,1.492 -3.261,3.698 -3.261,6.618 0,3.082 1.112,5.751 3.334,8.006 2.223,2.255 4.85,3.382 7.884,3.382"
             style="fill:#ffffff;fill-opacity:1;fill-rule:nonzero;stroke:none"
             id="path228" /></g><g
           id="g230"
           transform="translate(481.2598,651.6891)"><path
             d="m 0,0 c 0.405,-0.714 0.791,-1.176 1.156,-1.387 0.365,-0.211 0.945,-0.316 1.74,-0.316 1.151,0 2.051,0.43 2.701,1.289 C 6.91,1.322 7.568,3.106 7.568,4.94 7.568,6.513 6.821,7.3 5.329,7.3 3.69,7.3 2.514,6.351 1.801,4.453 1.719,4.242 1.654,4.064 1.605,3.918 Z m -1.995,-4.964 -6.351,-15.622 c -0.877,-2.157 -2.158,-3.236 -3.845,-3.236 -0.649,0 -1.205,0.215 -1.666,0.645 -0.463,0.429 -0.694,0.945 -0.694,1.545 0,0.503 0.203,1.265 0.608,2.287 L -2.215,9.563 c 0.601,1.46 1.639,2.19 3.115,2.19 1.022,0 1.833,-0.486 2.434,-1.46 1.135,1.201 2.521,1.801 4.16,1.801 1.704,0 3.078,-0.645 4.125,-1.935 1.047,-1.289 1.57,-2.989 1.57,-5.097 0,-3.991 -1.242,-7.244 -3.723,-9.758 C 8.654,-5.523 7.818,-6.091 6.959,-6.399 6.1,-6.708 4.898,-6.862 3.357,-6.862 c -1.654,0 -2.794,0.113 -3.418,0.341 -0.625,0.227 -1.269,0.746 -1.934,1.557"
             style="fill:#ffffff;fill-opacity:1;fill-rule:nonzero;stroke:none"
             id="path232" /></g></g></g></g></svg>
